<?xml version="1.0" encoding="UTF-8" standalone="no"?>
<!DOCTYPE svg PUBLIC "-//W3C//DTD SVG 1.1//EN"
 "http://www.w3.org/Graphics/SVG/1.1/DTD/svg11.dtd">
<!-- Generated by graphviz version 2.40.1 (20161225.0304)
 -->
<!-- Title: G Pages: 1 -->
<svg width="413pt" height="402pt"
 viewBox="0.00 0.00 413.14 401.66" xmlns="http://www.w3.org/2000/svg" xmlns:xlink="http://www.w3.org/1999/xlink">
<g id="graph0" class="graph" transform="scale(1 1) rotate(0) translate(4 397.6553)">
<title>G</title>
<polygon fill="#ffffff" stroke="transparent" points="-4,4 -4,-397.6553 409.1366,-397.6553 409.1366,4 -4,4"/>
<!-- start -->
<g id="node1" class="node">
<title>start</title>
<polygon fill="none" stroke="#000000" points="35.8255,-393.6553 .1737,-375.6553 35.8255,-357.6553 71.4773,-375.6553 35.8255,-393.6553"/>
<polyline fill="none" stroke="#000000" points="10.8858,-381.0636 10.8858,-370.2469 "/>
<polyline fill="none" stroke="#000000" points="25.1134,-363.0636 46.5376,-363.0636 "/>
<polyline fill="none" stroke="#000000" points="60.7651,-370.2469 60.7651,-381.0636 "/>
<polyline fill="none" stroke="#000000" points="46.5376,-388.2469 25.1134,-388.2469 "/>
<text text-anchor="middle" x="35.8255" y="-371.4553" font-family="Times,serif" font-size="14.00" fill="#000000">start</text>
</g>
<!-- irl -->
<g id="node4" class="node">
<title>irl</title>
<ellipse fill="none" stroke="#000000" cx="35.8255" cy="-302.6553" rx="30.3297" ry="18"/>
<text text-anchor="middle" x="35.8255" y="-298.4553" font-family="Times,serif" font-size="14.00" fill="#000000">IRL ?</text>
</g>
<!-- start&#45;&gt;irl -->
<g id="edge1" class="edge">
<title>start&#45;&gt;irl</title>
<path fill="none" stroke="#00ff00" d="M35.8255,-357.6103C35.8255,-349.5381 35.8255,-339.8316 35.8255,-330.837"/>
<polygon fill="#00ff00" stroke="#00ff00" points="39.3256,-330.7456 35.8255,-320.7456 32.3256,-330.7457 39.3256,-330.7456"/>
</g>
<!-- tape -->
<g id="node2" class="node">
<title>tape</title>
<polygon fill="none" stroke="#000000" points="274.6441,-51.1463 235.0068,-51.1463 235.0068,-11.509 274.6441,-11.509 274.6441,-51.1463"/>
<polyline fill="none" stroke="#000000" points="247.0068,-51.1463 235.0068,-39.1463 "/>
<polyline fill="none" stroke="#000000" points="235.0068,-23.509 247.0068,-11.509 "/>
<polyline fill="none" stroke="#000000" points="262.6441,-11.509 274.6441,-23.509 "/>
<polyline fill="none" stroke="#000000" points="274.6441,-39.1463 262.6441,-51.1463 "/>
<text text-anchor="middle" x="254.8255" y="-27.1276" font-family="Times,serif" font-size="14.00" fill="#000000">tape</text>
</g>
<!-- notape -->
<g id="node3" class="node">
<title>notape</title>
<polygon fill="none" stroke="#000000" points="96.9817,-62.4839 34.6693,-62.4839 34.6693,-.1714 96.9817,-.1714 96.9817,-62.4839"/>
<polyline fill="none" stroke="#000000" points="46.6693,-62.4839 34.6693,-50.4839 "/>
<polyline fill="none" stroke="#000000" points="34.6693,-12.1714 46.6693,-.1714 "/>
<polyline fill="none" stroke="#000000" points="84.9817,-.1714 96.9817,-12.1714 "/>
<polyline fill="none" stroke="#000000" points="96.9817,-50.4839 84.9817,-62.4839 "/>
<text text-anchor="middle" x="65.8255" y="-27.1276" font-family="Times,serif" font-size="14.00" fill="#000000">et non :)</text>
</g>
<!-- irl&#45;&gt;notape -->
<g id="edge5" class="edge">
<title>irl&#45;&gt;notape</title>
<path fill="none" stroke="#ffa500" d="M35.7221,-284.5829C35.7481,-263.8096 36.2356,-228.7092 38.8255,-198.6553 43.3746,-145.865 46.7803,-132.8634 55.8255,-80.6553 56.2851,-78.0024 56.7789,-75.2735 57.2921,-72.5254"/>
<polygon fill="#ffa500" stroke="#ffa500" points="60.751,-73.0726 59.2084,-62.5907 53.8777,-71.7468 60.751,-73.0726"/>
<text text-anchor="middle" x="53.3255" y="-169.4553" font-family="Times,serif" font-size="14.00" fill="#000000">non</text>
</g>
<!-- direct -->
<g id="node6" class="node">
<title>direct</title>
<ellipse fill="none" stroke="#000000" cx="197.8255" cy="-216.6553" rx="149.6629" ry="18"/>
<text text-anchor="middle" x="197.8255" y="-212.4553" font-family="Times,serif" font-size="14.00" fill="#000000">est&#45;ce que le rond est visible en direct ?</text>
</g>
<!-- irl&#45;&gt;direct -->
<g id="edge2" class="edge">
<title>irl&#45;&gt;direct</title>
<path fill="none" stroke="#00ff00" d="M58.6925,-290.516C83.8565,-277.1573 124.8414,-255.3999 155.8259,-238.9514"/>
<polygon fill="#00ff00" stroke="#00ff00" points="157.4929,-242.0291 164.6843,-234.2487 154.2106,-235.8463 157.4929,-242.0291"/>
<text text-anchor="middle" x="134.7703" y="-255.4553" font-family="Times,serif" font-size="14.00" fill="#000000">oui</text>
</g>
<!-- belt -->
<g id="node5" class="node">
<title>belt</title>
<ellipse fill="none" stroke="#000000" cx="254.8255" cy="-130.6553" rx="150.1226" ry="18"/>
<text text-anchor="middle" x="254.8255" y="-126.4553" font-family="Times,serif" font-size="14.00" fill="#000000">en dessous de la ceinture du recepteur ?</text>
</g>
<!-- belt&#45;&gt;tape -->
<g id="edge4" class="edge">
<title>belt&#45;&gt;tape</title>
<path fill="none" stroke="#00ff00" d="M254.8255,-112.4371C254.8255,-98.1949 254.8255,-78.0917 254.8255,-61.4628"/>
<polygon fill="#00ff00" stroke="#00ff00" points="258.3256,-61.1335 254.8255,-51.1335 251.3256,-61.1336 258.3256,-61.1335"/>
<text text-anchor="middle" x="313.5359" y="-83.4553" font-family="Times,serif" font-size="14.00" fill="#000000">tape en moins de 30s</text>
</g>
<!-- belt&#45;&gt;notape -->
<g id="edge7" class="edge">
<title>belt&#45;&gt;notape</title>
<path fill="none" stroke="#ffa500" d="M221.0361,-112.8975C188.9114,-96.0146 140.5547,-70.6011 106.3676,-52.6343"/>
<polygon fill="#ffa500" stroke="#ffa500" points="107.6063,-49.3314 97.1261,-47.7775 104.3498,-55.5278 107.6063,-49.3314"/>
<text text-anchor="middle" x="192.3255" y="-83.4553" font-family="Times,serif" font-size="14.00" fill="#000000">non</text>
</g>
<!-- direct&#45;&gt;notape -->
<g id="edge6" class="edge">
<title>direct&#45;&gt;notape</title>
<path fill="none" stroke="#ffa500" d="M142.7025,-199.795C117.74,-189.2173 90.3909,-172.8774 74.8255,-148.6553 60.5389,-126.4232 58.3924,-96.7017 59.765,-72.736"/>
<polygon fill="#ffa500" stroke="#ffa500" points="63.2738,-72.7637 60.5776,-62.5177 56.2958,-72.2087 63.2738,-72.7637"/>
<text text-anchor="middle" x="85.3255" y="-126.4553" font-family="Times,serif" font-size="14.00" fill="#000000">non</text>
</g>
<!-- direct&#45;&gt;belt -->
<g id="edge3" class="edge">
<title>direct&#45;&gt;belt</title>
<path fill="none" stroke="#00ff00" d="M209.9137,-198.4169C217.8487,-186.4448 228.3584,-170.5881 237.2161,-157.2238"/>
<polygon fill="#00ff00" stroke="#00ff00" points="240.1474,-159.1364 242.7547,-148.8674 234.3126,-155.2691 240.1474,-159.1364"/>
<text text-anchor="middle" x="237.7703" y="-169.4553" font-family="Times,serif" font-size="14.00" fill="#000000">oui</text>
</g>
</g>
</svg>
